<?xml version="1.0" standalone="no"?>
<!DOCTYPE svg PUBLIC "-//W3C//DTD SVG 20010904//EN"
 "http://www.w3.org/TR/2001/REC-SVG-20010904/DTD/svg10.dtd">
<svg version="1.0" xmlns="http://www.w3.org/2000/svg"
 width="512.000000pt" height="512.000000pt" viewBox="0 0 512.000000 512.000000"
 preserveAspectRatio="xMidYMid meet">
<metadata>
Created by potrace 1.14, written by Peter Selinger 2001-2017
</metadata>
<g transform="translate(0.000000,512.000000) scale(0.100000,-0.100000)"
fill="#000000" stroke="none">
<path d="M1688 5115 c-2 -1 -28 -5 -58 -9 -150 -16 -248 -38 -395 -88 -265
-91 -490 -233 -695 -438 -299 -299 -480 -675 -529 -1100 -11 -99 -6 -355 8
-450 63 -406 238 -756 519 -1038 54 -54 125 -119 158 -143 32 -24 61 -46 64
-49 3 -3 30 -22 60 -41 333 -214 669 -311 1055 -303 128 2 170 6 308 29 118
20 300 82 443 150 l112 52 787 -787 c538 -538 805 -798 842 -821 201 -121 450
-93 609 69 157 162 184 399 68 600 -17 30 -320 340 -820 841 l-793 794 38 81
c68 142 122 287 137 366 3 14 10 43 16 65 13 50 16 68 34 217 9 72 9 253 0
347 -20 222 -75 416 -176 626 -207 431 -579 767 -1025 925 -83 30 -250 74
-320 84 -22 4 -56 9 -75 12 -36 6 -367 13 -372 9z m301 -520 c186 -23 371 -87
529 -182 42 -26 79 -49 82 -52 3 -3 23 -19 45 -36 22 -16 74 -63 116 -104 264
-263 401 -607 386 -972 -5 -128 -14 -215 -23 -230 -2 -4 -6 -23 -10 -44 -3
-20 -20 -78 -38 -129 -167 -465 -566 -791 -1061 -867 -72 -11 -292 -14 -323
-5 -9 3 -38 7 -65 10 -138 16 -407 115 -487 181 -8 7 -20 14 -27 16 -28 9
-180 138 -244 208 -173 186 -287 414 -334 667 -21 118 -24 317 -6 419 6 33 13
75 16 92 7 46 51 182 77 239 11 27 21 51 21 54 -1 3 8 17 18 32 10 14 19 29
19 33 0 6 55 92 101 155 41 57 160 180 230 235 274 220 632 322 978 280z"/>
<path d="M1020 3929 c-67 -27 -187 -193 -238 -332 -65 -173 -74 -362 -27 -542
43 -163 186 -383 270 -415 64 -24 162 24 167 83 1 12 2 31 3 42 2 28 -18 65
-65 122 -22 26 -45 53 -50 60 -14 17 -55 109 -75 168 -10 29 -18 91 -20 145
-6 168 40 299 151 434 40 49 56 76 58 104 10 99 -81 168 -174 131z"/>
</g>
</svg>
